# xmcd
# 
# Track frame offsets:
#     183
#     49970
#     98200
#     139613
#     173373
#     241383
# 
# Disc length: 3584
# 
# Revision: 5
# Processed by: cddbd v1.5.2PL0 Copyright (c) Steve Scherf et al.
# Submitted via: fre:ac v1.0.17
# 
DISCID=460dfe06
DTITLE=Atmospheric Moods - The Mountain Retreat
DYEAR=1994
DGENRE=Ambient
TTITLE0=Kogi Bridge
TTITLE1=Papa's Cello
TTITLE2=George's Song
TTITLE3=Shohondo Temple
TTITLE4=The Strings of Time
TTITLE5=Tokapi
EXTD=jAq
EXTT0=
EXTT1=
EXTT2=
EXTT3=
EXTT4=
EXTT5=
PLAYORDER=
